<svg width="70" height="70" viewBox="0 0 70 70" fill="none" xmlns="http://www.w3.org/2000/svg">
<path d="M33.2051 0C28.8446 -5.19991e-08 24.5267 0.858876 20.4981 2.52759C16.4694 4.1963 12.8089 6.64218 9.72556 9.72556C6.64217 12.8089 4.1963 16.4694 2.52759 20.4981C0.858875 24.5267 -6.58426e-07 28.8446 0 33.2051L33.2051 33.2051V0Z" fill="#63109C"/>
<path d="M70 16.6026C70 25.7719 62.5668 33.2051 53.3974 33.2051H36.7949V16.6026C36.7949 7.43322 44.2281 0 53.3974 0C62.5668 0 70 7.43322 70 16.6026Z" fill="#63109C"/>
<path d="M0 53.3974C0 44.2281 7.43322 36.7949 16.6026 36.7949H33.2051V53.3974C33.2051 62.5668 25.7719 70 16.6026 70C7.43322 70 0 62.5668 0 53.3974Z" fill="#EF9608"/>
<path d="M36.7949 70C41.1554 70 45.4733 69.1411 49.5019 67.4724C53.5306 65.8037 57.1911 63.3578 60.2744 60.2744C63.3578 57.1911 65.8037 53.5306 67.4724 49.5019C69.1411 45.4733 70 41.1554 70 36.7949H36.7949V70Z" fill="#EF9608"/>
</svg>
