<svg width="392" height="78" viewBox="0 0 392 78" fill="none" xmlns="http://www.w3.org/2000/svg">
<path d="M37 0C32.1411 -5.79419e-08 27.3298 0.957033 22.8407 2.81646C18.3517 4.67588 14.2728 7.40128 10.837 10.8371C7.40128 14.2728 4.67588 18.3517 2.81646 22.8407C0.957032 27.3298 -7.33674e-07 32.1411 0 37L37 37V0Z" fill="white"/>
<path d="M78 18.5C78 28.7173 69.7173 37 59.5 37H41V18.5C41 8.28273 49.2827 0 59.5 0C69.7173 0 78 8.28273 78 18.5Z" fill="white"/>
<path d="M0 59.5C0 49.2827 8.28273 41 18.5 41H37V59.5C37 69.7173 28.7173 78 18.5 78C8.28273 78 0 69.7173 0 59.5Z" fill="white"/>
<path d="M41 78C45.8589 78 50.6702 77.043 55.1593 75.1835C59.6483 73.3241 63.7272 70.5987 67.1629 67.163C70.5987 63.7272 73.3241 59.6483 75.1835 55.1593C77.043 50.6702 78 45.8589 78 41L41 41V78Z" fill="white"/>
<path d="M89.1133 28.3164L94.1641 28C94.2734 28.8203 94.4961 29.4453 94.832 29.875C95.3789 30.5703 96.1602 30.918 97.1758 30.918C97.9336 30.918 98.5156 30.7422 98.9219 30.3906C99.3359 30.0312 99.543 29.6172 99.543 29.1484C99.543 28.7031 99.3477 28.3047 98.957 27.9531C98.5664 27.6016 97.6602 27.2695 96.2383 26.957C93.9102 26.4336 92.25 25.7383 91.2578 24.8711C90.2578 24.0039 89.7578 22.8984 89.7578 21.5547C89.7578 20.6719 90.0117 19.8398 90.5195 19.0586C91.0352 18.2695 91.8047 17.6523 92.8281 17.207C93.8594 16.7539 95.2695 16.5273 97.0586 16.5273C99.2539 16.5273 100.926 16.9375 102.074 17.7578C103.23 18.5703 103.918 19.8672 104.137 21.6484L99.1328 21.9414C99 21.168 98.7188 20.6055 98.2891 20.2539C97.8672 19.9023 97.2812 19.7266 96.5312 19.7266C95.9141 19.7266 95.4492 19.8594 95.1367 20.125C94.8242 20.3828 94.668 20.6992 94.668 21.0742C94.668 21.3477 94.7969 21.5938 95.0547 21.8125C95.3047 22.0391 95.8984 22.25 96.8359 22.4453C99.1562 22.9453 100.816 23.4531 101.816 23.9688C102.824 24.4766 103.555 25.1094 104.008 25.8672C104.469 26.625 104.699 27.4727 104.699 28.4102C104.699 29.5117 104.395 30.5273 103.785 31.457C103.176 32.3867 102.324 33.0938 101.23 33.5781C100.137 34.0547 98.7578 34.293 97.0938 34.293C94.1719 34.293 92.1484 33.7305 91.0234 32.6055C89.8984 31.4805 89.2617 30.0508 89.1133 28.3164ZM107.594 16.8203H112.914V34H107.594V16.8203ZM116.805 16.8203H124.691C126.246 16.8203 127.5 17.0312 128.453 17.4531C129.414 17.875 130.207 18.4805 130.832 19.2695C131.457 20.0586 131.91 20.9766 132.191 22.0234C132.473 23.0703 132.613 24.1797 132.613 25.3516C132.613 27.1875 132.402 28.6133 131.98 29.6289C131.566 30.6367 130.988 31.4844 130.246 32.1719C129.504 32.8516 128.707 33.3047 127.855 33.5312C126.691 33.8438 125.637 34 124.691 34H116.805V16.8203ZM122.113 20.7109V30.0977H123.414C124.523 30.0977 125.312 29.9766 125.781 29.7344C126.25 29.4844 126.617 29.0547 126.883 28.4453C127.148 27.8281 127.281 26.832 127.281 25.457C127.281 23.6367 126.984 22.3906 126.391 21.7188C125.797 21.0469 124.812 20.7109 123.438 20.7109H122.113ZM144.953 31.1641H138.906L138.074 34H132.648L139.105 16.8203H144.895L151.352 34H145.797L144.953 31.1641ZM143.84 27.4492L141.941 21.2734L140.055 27.4492H143.84ZM161.09 16.8203H171.027C172.684 16.8203 173.953 17.2305 174.836 18.0508C175.727 18.8711 176.172 19.8867 176.172 21.0977C176.172 22.1133 175.855 22.9844 175.223 23.7109C174.801 24.1953 174.184 24.5781 173.371 24.8594C174.605 25.1562 175.512 25.668 176.09 26.3945C176.676 27.1133 176.969 28.0195 176.969 29.1133C176.969 30.0039 176.762 30.8047 176.348 31.5156C175.934 32.2266 175.367 32.7891 174.648 33.2031C174.203 33.4609 173.531 33.6484 172.633 33.7656C171.438 33.9219 170.645 34 170.254 34H161.09V16.8203ZM166.445 23.5586H168.754C169.582 23.5586 170.156 23.418 170.477 23.1367C170.805 22.8477 170.969 22.4336 170.969 21.8945C170.969 21.3945 170.805 21.0039 170.477 20.7227C170.156 20.4414 169.594 20.3008 168.789 20.3008H166.445V23.5586ZM166.445 30.3086H169.152C170.066 30.3086 170.711 30.1484 171.086 29.8281C171.461 29.5 171.648 29.0625 171.648 28.5156C171.648 28.0078 171.461 27.6016 171.086 27.2969C170.719 26.9844 170.07 26.8281 169.141 26.8281H166.445V30.3086ZM179.746 16.8203H193.973V20.4883H185.066V23.2188H193.328V26.7227H185.066V30.1094H194.23V34H179.746V16.8203ZM197.172 34V16.8203H206.02C207.66 16.8203 208.914 16.9609 209.781 17.2422C210.648 17.5234 211.348 18.0469 211.879 18.8125C212.41 19.5703 212.676 20.4961 212.676 21.5898C212.676 22.543 212.473 23.3672 212.066 24.0625C211.66 24.75 211.102 25.3086 210.391 25.7383C209.938 26.0117 209.316 26.2383 208.527 26.418C209.16 26.6289 209.621 26.8398 209.91 27.0508C210.105 27.1914 210.387 27.4922 210.754 27.9531C211.129 28.4141 211.379 28.7695 211.504 29.0195L214.07 34H208.07L205.234 28.75C204.875 28.0703 204.555 27.6289 204.273 27.4258C203.891 27.1602 203.457 27.0273 202.973 27.0273H202.504V34H197.172ZM202.504 23.7812H204.742C204.984 23.7812 205.453 23.7031 206.148 23.5469C206.5 23.4766 206.785 23.2969 207.004 23.0078C207.23 22.7188 207.344 22.3867 207.344 22.0117C207.344 21.457 207.168 21.0312 206.816 20.7344C206.465 20.4375 205.805 20.2891 204.836 20.2891H202.504V23.7812ZM222.93 16.8203H228.25V26.1602C228.25 28.1211 228.074 29.6133 227.723 30.6367C227.379 31.6602 226.68 32.5273 225.625 33.2383C224.578 33.9492 223.234 34.3047 221.594 34.3047C219.859 34.3047 218.516 34.0703 217.562 33.6016C216.609 33.1328 215.871 32.4492 215.348 31.5508C214.832 30.6445 214.527 29.5273 214.434 28.1992L219.508 27.5078C219.516 28.2656 219.582 28.8281 219.707 29.1953C219.832 29.5625 220.043 29.8594 220.34 30.0859C220.543 30.2344 220.832 30.3086 221.207 30.3086C221.801 30.3086 222.234 30.0898 222.508 29.6523C222.789 29.207 222.93 28.4609 222.93 27.4141V16.8203ZM241.727 31.1641H235.68L234.848 34H229.422L235.879 16.8203H241.668L248.125 34H242.57L241.727 31.1641ZM240.613 27.4492L238.715 21.2734L236.828 27.4492H240.613ZM246.062 16.8203H251.957L255.426 22.6211L258.895 16.8203H264.754L258.074 26.8047V34H252.754V26.8047L246.062 16.8203ZM274.773 31.1641H268.727L267.895 34H262.469L268.926 16.8203H274.715L281.172 34H275.617L274.773 31.1641ZM273.66 27.4492L271.762 21.2734L269.875 27.4492H273.66ZM299.535 27.7773V24.2031H307.738V31.5273C306.168 32.5977 304.777 33.3281 303.566 33.7188C302.363 34.1016 300.934 34.293 299.277 34.293C297.238 34.293 295.574 33.9453 294.285 33.25C293.004 32.5547 292.008 31.5195 291.297 30.1445C290.594 28.7695 290.242 27.1914 290.242 25.4102C290.242 23.5352 290.629 21.9062 291.402 20.5234C292.176 19.1328 293.309 18.0781 294.801 17.3594C295.965 16.8047 297.531 16.5273 299.5 16.5273C301.398 16.5273 302.816 16.6992 303.754 17.043C304.699 17.3867 305.48 17.9219 306.098 18.6484C306.723 19.3672 307.191 20.2812 307.504 21.3906L302.383 22.3047C302.172 21.6562 301.812 21.1602 301.305 20.8164C300.805 20.4727 300.164 20.3008 299.383 20.3008C298.219 20.3008 297.289 20.707 296.594 21.5195C295.906 22.3242 295.562 23.6016 295.562 25.3516C295.562 27.2109 295.91 28.5391 296.605 29.3359C297.309 30.1328 298.285 30.5312 299.535 30.5312C300.129 30.5312 300.695 30.4453 301.234 30.2734C301.773 30.1016 302.391 29.8086 303.086 29.3945V27.7773H299.535ZM310.961 34V16.8203H319.809C321.449 16.8203 322.703 16.9609 323.57 17.2422C324.438 17.5234 325.137 18.0469 325.668 18.8125C326.199 19.5703 326.465 20.4961 326.465 21.5898C326.465 22.543 326.262 23.3672 325.855 24.0625C325.449 24.75 324.891 25.3086 324.18 25.7383C323.727 26.0117 323.105 26.2383 322.316 26.418C322.949 26.6289 323.41 26.8398 323.699 27.0508C323.895 27.1914 324.176 27.4922 324.543 27.9531C324.918 28.4141 325.168 28.7695 325.293 29.0195L327.859 34H321.859L319.023 28.75C318.664 28.0703 318.344 27.6289 318.062 27.4258C317.68 27.1602 317.246 27.0273 316.762 27.0273H316.293V34H310.961ZM316.293 23.7812H318.531C318.773 23.7812 319.242 23.7031 319.938 23.5469C320.289 23.4766 320.574 23.2969 320.793 23.0078C321.02 22.7188 321.133 22.3867 321.133 22.0117C321.133 21.457 320.957 21.0312 320.605 20.7344C320.254 20.4375 319.594 20.2891 318.625 20.2891H316.293V23.7812ZM328.48 25.4219C328.48 22.6172 329.262 20.4336 330.824 18.8711C332.387 17.3086 334.562 16.5273 337.352 16.5273C340.211 16.5273 342.414 17.2969 343.961 18.8359C345.508 20.3672 346.281 22.5156 346.281 25.2812C346.281 27.2891 345.941 28.9375 345.262 30.2266C344.59 31.5078 343.613 32.5078 342.332 33.2266C341.059 33.9375 339.469 34.293 337.562 34.293C335.625 34.293 334.02 33.9844 332.746 33.3672C331.48 32.75 330.453 31.7734 329.664 30.4375C328.875 29.1016 328.48 27.4297 328.48 25.4219ZM333.789 25.4453C333.789 27.1797 334.109 28.4258 334.75 29.1836C335.398 29.9414 336.277 30.3203 337.387 30.3203C338.527 30.3203 339.41 29.9492 340.035 29.207C340.66 28.4648 340.973 27.1328 340.973 25.2109C340.973 23.5938 340.645 22.4141 339.988 21.6719C339.34 20.9219 338.457 20.5469 337.34 20.5469C336.27 20.5469 335.41 20.9258 334.762 21.6836C334.113 22.4414 333.789 23.6953 333.789 25.4453ZM360.32 16.8203H365.617V27.0625C365.617 28.0781 365.457 29.0391 365.137 29.9453C364.824 30.8438 364.328 31.6328 363.648 32.3125C362.977 32.9844 362.27 33.457 361.527 33.7305C360.496 34.1133 359.258 34.3047 357.812 34.3047C356.977 34.3047 356.062 34.2461 355.07 34.1289C354.086 34.0117 353.262 33.7812 352.598 33.4375C351.934 33.0859 351.324 32.5898 350.77 31.9492C350.223 31.3086 349.848 30.6484 349.645 29.9688C349.316 28.875 349.152 27.9062 349.152 27.0625V16.8203H354.449V27.3086C354.449 28.2461 354.707 28.9805 355.223 29.5117C355.746 30.0352 356.469 30.2969 357.391 30.2969C358.305 30.2969 359.02 30.0391 359.535 29.5234C360.059 29 360.32 28.2617 360.32 27.3086V16.8203ZM369.109 16.8203H377.934C379.855 16.8203 381.293 17.2773 382.246 18.1914C383.207 19.1055 383.688 20.4062 383.688 22.0938C383.688 23.8281 383.164 25.1836 382.117 26.1602C381.078 27.1367 379.488 27.625 377.348 27.625H374.441V34H369.109V16.8203ZM374.441 24.1445H375.742C376.766 24.1445 377.484 23.9688 377.898 23.6172C378.312 23.2578 378.52 22.8008 378.52 22.2461C378.52 21.707 378.34 21.25 377.98 20.875C377.621 20.5 376.945 20.3125 375.953 20.3125H374.441V24.1445Z" fill="white"/>
<path d="M96.8809 58.8145V55.8359H103.717V61.9395C102.408 62.8314 101.249 63.4401 100.24 63.7656C99.2376 64.0846 98.0462 64.2441 96.666 64.2441C94.9668 64.2441 93.5801 63.9544 92.5059 63.375C91.4382 62.7956 90.6081 61.9329 90.0156 60.7871C89.4297 59.6413 89.1367 58.3262 89.1367 56.8418C89.1367 55.2793 89.459 53.9219 90.1035 52.7695C90.748 51.6107 91.6921 50.7318 92.9355 50.1328C93.9056 49.6706 95.2109 49.4395 96.8516 49.4395C98.4336 49.4395 99.6152 49.5827 100.396 49.8691C101.184 50.1556 101.835 50.6016 102.35 51.207C102.87 51.806 103.261 52.5677 103.521 53.4922L99.2539 54.2539C99.0781 53.7135 98.7786 53.3001 98.3555 53.0137C97.9388 52.7272 97.4049 52.584 96.7539 52.584C95.7839 52.584 95.0091 52.9225 94.4297 53.5996C93.8568 54.2702 93.5703 55.3346 93.5703 56.793C93.5703 58.3424 93.86 59.4492 94.4395 60.1133C95.0254 60.7773 95.8392 61.1094 96.8809 61.1094C97.3757 61.1094 97.8477 61.0378 98.2969 60.8945C98.7461 60.7513 99.2604 60.5072 99.8398 60.1621V58.8145H96.8809ZM106.402 64V49.6836H113.775C115.143 49.6836 116.188 49.8008 116.91 50.0352C117.633 50.2695 118.215 50.7057 118.658 51.3438C119.101 51.9753 119.322 52.7467 119.322 53.6582C119.322 54.4525 119.153 55.1393 118.814 55.7188C118.476 56.2917 118.01 56.7572 117.418 57.1152C117.04 57.3431 116.523 57.5319 115.865 57.6816C116.393 57.8574 116.777 58.0332 117.018 58.209C117.18 58.3262 117.415 58.5768 117.721 58.9609C118.033 59.3451 118.242 59.6413 118.346 59.8496L120.484 64H115.484L113.121 59.625C112.822 59.0586 112.555 58.6908 112.32 58.5215C112.001 58.3001 111.64 58.1895 111.236 58.1895H110.846V64H106.402ZM110.846 55.4844H112.711C112.913 55.4844 113.303 55.4193 113.883 55.2891C114.176 55.2305 114.413 55.0807 114.596 54.8398C114.785 54.599 114.879 54.3223 114.879 54.0098C114.879 53.5475 114.732 53.1927 114.439 52.9453C114.146 52.6979 113.596 52.5742 112.789 52.5742H110.846V55.4844ZM121.002 56.8516C121.002 54.5143 121.653 52.6947 122.955 51.3926C124.257 50.0905 126.07 49.4395 128.395 49.4395C130.777 49.4395 132.613 50.0807 133.902 51.3633C135.191 52.6393 135.836 54.4297 135.836 56.7344C135.836 58.4076 135.553 59.7812 134.986 60.8555C134.426 61.9232 133.613 62.7565 132.545 63.3555C131.484 63.9479 130.159 64.2441 128.57 64.2441C126.956 64.2441 125.618 63.987 124.557 63.4727C123.502 62.9583 122.646 62.1445 121.988 61.0312C121.331 59.918 121.002 58.5247 121.002 56.8516ZM125.426 56.8711C125.426 58.3164 125.693 59.3548 126.227 59.9863C126.767 60.6178 127.499 60.9336 128.424 60.9336C129.374 60.9336 130.11 60.6243 130.631 60.0059C131.152 59.3874 131.412 58.2773 131.412 56.6758C131.412 55.3281 131.139 54.3451 130.592 53.7266C130.051 53.1016 129.316 52.7891 128.385 52.7891C127.493 52.7891 126.777 53.1048 126.236 53.7363C125.696 54.3678 125.426 55.4128 125.426 56.8711ZM136.393 49.6836H140.592L142.105 57.6816L144.312 49.6836H148.502L150.719 57.6816L152.232 49.6836H156.412L153.258 64H148.922L146.412 54.9863L143.912 64H139.576L136.393 49.6836ZM163.072 49.6836H167.271L168.785 57.6816L170.992 49.6836H175.182L177.398 57.6816L178.912 49.6836H183.092L179.938 64H175.602L173.092 54.9863L170.592 64H166.256L163.072 49.6836ZM184.723 49.6836H189.156V64H184.723V49.6836ZM191.334 49.6836H204.781V53.2188H200.27V64H195.846V53.2188H191.334V49.6836ZM206.812 49.6836H211.236V54.6934H216.07V49.6836H220.514V64H216.07V58.209H211.236V64H206.812V49.6836ZM239.449 49.6836H243.863V58.2188C243.863 59.0651 243.73 59.8659 243.463 60.6211C243.202 61.3698 242.789 62.0273 242.223 62.5938C241.663 63.1536 241.074 63.5475 240.455 63.7754C239.596 64.0944 238.564 64.2539 237.359 64.2539C236.663 64.2539 235.901 64.2051 235.074 64.1074C234.254 64.0098 233.567 63.8177 233.014 63.5312C232.46 63.2383 231.952 62.8249 231.49 62.291C231.035 61.7572 230.722 61.207 230.553 60.6406C230.279 59.7292 230.143 58.9219 230.143 58.2188V49.6836H234.557V58.4238C234.557 59.2051 234.771 59.8171 235.201 60.2598C235.637 60.696 236.24 60.9141 237.008 60.9141C237.77 60.9141 238.365 60.6992 238.795 60.2695C239.231 59.8333 239.449 59.2181 239.449 58.4238V49.6836ZM246.021 59.2637L250.23 59C250.322 59.6836 250.507 60.2044 250.787 60.5625C251.243 61.1419 251.894 61.4316 252.74 61.4316C253.372 61.4316 253.857 61.2852 254.195 60.9922C254.54 60.6927 254.713 60.3477 254.713 59.957C254.713 59.5859 254.55 59.2539 254.225 58.9609C253.899 58.668 253.144 58.3913 251.959 58.1309C250.019 57.6947 248.635 57.1152 247.809 56.3926C246.975 55.6699 246.559 54.7487 246.559 53.6289C246.559 52.8932 246.77 52.1999 247.193 51.5488C247.623 50.8913 248.264 50.377 249.117 50.0059C249.977 49.6283 251.152 49.4395 252.643 49.4395C254.472 49.4395 255.865 49.7812 256.822 50.4648C257.786 51.1419 258.359 52.2227 258.541 53.707L254.371 53.9512C254.26 53.3066 254.026 52.8379 253.668 52.5449C253.316 52.252 252.828 52.1055 252.203 52.1055C251.689 52.1055 251.301 52.2161 251.041 52.4375C250.781 52.6523 250.65 52.916 250.65 53.2285C250.65 53.4564 250.758 53.6615 250.973 53.8438C251.181 54.0326 251.676 54.2083 252.457 54.3711C254.391 54.7878 255.774 55.2109 256.607 55.6406C257.447 56.0638 258.056 56.5911 258.434 57.2227C258.818 57.8542 259.01 58.5605 259.01 59.3418C259.01 60.2598 258.756 61.1061 258.248 61.8809C257.74 62.6556 257.031 63.2448 256.119 63.6484C255.208 64.0456 254.059 64.2441 252.672 64.2441C250.237 64.2441 248.551 63.7754 247.613 62.8379C246.676 61.9004 246.145 60.709 246.021 59.2637Z" fill="white"/>
</svg>
