<svg width="111" height="68" viewBox="0 0 111 68" fill="none" xmlns="http://www.w3.org/2000/svg">
<path d="M54.2702 0C51.2824 -3.5629e-08 48.3239 0.588489 45.5635 1.73187C42.8032 2.87525 40.295 4.55112 38.1824 6.66381C36.0697 8.77649 34.3938 11.2846 33.2504 14.045C32.107 16.8053 31.5186 19.7639 31.5186 22.7517L54.2702 22.7517V0Z" fill="#63109C"/>
<path d="M79.4815 11.3758C79.4815 17.6585 74.3884 22.7517 68.1057 22.7517H56.7299V11.3758C56.7299 5.09313 61.823 0 68.1057 0C74.3884 0 79.4815 5.09313 79.4815 11.3758Z" fill="#63109C"/>
<path d="M31.5186 36.5871C31.5186 30.3044 36.6117 25.2113 42.8944 25.2113H54.2702V36.5871C54.2702 42.8698 49.1771 47.963 42.8944 47.963C36.6117 47.963 31.5186 42.8698 31.5186 36.5871Z" fill="#EF9608"/>
<path d="M56.7299 47.963C59.7176 47.963 62.6762 47.3745 65.4365 46.2311C68.1969 45.0877 70.705 43.4118 72.8177 41.2992C74.9304 39.1865 76.6063 36.6783 77.7497 33.918C78.893 31.1576 79.4815 28.1991 79.4815 25.2113L56.7299 25.2113V47.963Z" fill="#EF9608"/>
<path d="M0.798601 62.7054L2.67316 62.588C2.71375 62.8924 2.79639 63.1244 2.92107 63.2839C3.12404 63.5419 3.41399 63.6709 3.79093 63.6709C4.07219 63.6709 4.28821 63.6057 4.43898 63.4752C4.59266 63.3418 4.6695 63.1882 4.6695 63.0142C4.6695 62.8489 4.59701 62.701 4.45203 62.5706C4.30705 62.4401 3.97071 62.3169 3.44299 62.2009C2.57892 62.0066 1.96277 61.7485 1.59453 61.4267C1.22338 61.1048 1.03781 60.6946 1.03781 60.1958C1.03781 59.8682 1.13205 59.5594 1.32052 59.2694C1.51189 58.9766 1.7975 58.7475 2.17734 58.5822C2.56008 58.4141 3.08344 58.33 3.74744 58.33C4.56221 58.33 5.18272 58.4822 5.60895 58.7867C6.03808 59.0882 6.29324 59.5695 6.37443 60.2306L4.51727 60.3394C4.46798 60.0523 4.36359 59.8435 4.20412 59.7131C4.04754 59.5826 3.83008 59.5173 3.55172 59.5173C3.32266 59.5173 3.15013 59.5666 3.03415 59.6652C2.91817 59.7609 2.86018 59.8783 2.86018 60.0175C2.86018 60.119 2.90802 60.2103 3.00371 60.2915C3.09649 60.3756 3.31686 60.4539 3.6648 60.5264C4.52597 60.712 5.14212 60.9004 5.51326 61.0918C5.88731 61.2803 6.15841 61.5151 6.32659 61.7964C6.49766 62.0776 6.5832 62.3922 6.5832 62.7402C6.5832 63.149 6.47011 63.526 6.24395 63.871C6.01779 64.2161 5.70173 64.4785 5.2958 64.6582C4.88986 64.8351 4.37809 64.9236 3.76049 64.9236C2.67606 64.9236 1.92508 64.7148 1.50754 64.2973C1.09001 63.8797 0.853693 63.3491 0.798601 62.7054ZM7.65748 58.4387H9.63207V64.8148H7.65748V58.4387ZM11.076 58.4387H14.0031C14.5801 58.4387 15.0455 58.517 15.3993 58.6736C15.7559 58.8302 16.0502 59.0549 16.2822 59.3477C16.5141 59.6406 16.6823 59.9813 16.7867 60.3698C16.8911 60.7584 16.9433 61.1701 16.9433 61.605C16.9433 62.2864 16.865 62.8156 16.7084 63.1925C16.5547 63.5666 16.3402 63.8812 16.0647 64.1363C15.7893 64.3886 15.4935 64.5568 15.1775 64.6408C14.7454 64.7568 14.354 64.8148 14.0031 64.8148H11.076V58.4387ZM13.0463 59.8827V63.3665H13.5291C13.9408 63.3665 14.2337 63.3216 14.4076 63.2317C14.5816 63.1389 14.7179 62.9794 14.8165 62.7532C14.915 62.5242 14.9643 62.1545 14.9643 61.6442C14.9643 60.9686 14.8542 60.5061 14.6338 60.2567C14.4134 60.0074 14.0481 59.8827 13.5378 59.8827H13.0463ZM21.5231 63.7623H19.2789L18.9701 64.8148H16.9563L19.3528 58.4387H21.5014L23.8978 64.8148H21.8363L21.5231 63.7623ZM21.1099 62.3835L20.4053 60.0915L19.7051 62.3835H21.1099ZM27.5121 58.4387H31.2003C31.8151 58.4387 32.2862 58.5909 32.6139 58.8954C32.9444 59.1998 33.1097 59.5768 33.1097 60.0262C33.1097 60.4032 32.9923 60.7265 32.7574 60.9961C32.6008 61.1759 32.3718 61.318 32.0702 61.4223C32.5283 61.5325 32.8647 61.7225 33.0793 61.9921C33.2967 62.2589 33.4055 62.5952 33.4055 63.0012C33.4055 63.3317 33.3286 63.6289 33.1749 63.8928C33.0213 64.1566 32.811 64.3654 32.5443 64.5191C32.379 64.6148 32.1297 64.6843 31.7962 64.7278C31.3526 64.7858 31.0583 64.8148 30.9133 64.8148H27.5121V58.4387ZM29.4998 60.9396H30.3566C30.6639 60.9396 30.8771 60.8874 30.9959 60.783C31.1177 60.6757 31.1786 60.522 31.1786 60.322C31.1786 60.1364 31.1177 59.9914 30.9959 59.887C30.8771 59.7827 30.6683 59.7305 30.3696 59.7305H29.4998V60.9396ZM29.4998 63.4448H30.5045C30.8437 63.4448 31.0829 63.3853 31.2221 63.2665C31.3613 63.1447 31.4309 62.9823 31.4309 62.7793C31.4309 62.5909 31.3613 62.4401 31.2221 62.327C31.0858 62.211 30.8452 62.153 30.5001 62.153H29.4998V63.4448ZM34.4362 58.4387H39.7163V59.8001H36.4108V60.8134H39.4771V62.1139H36.4108V63.3708H39.812V64.8148H34.4362V58.4387ZM40.9037 64.8148V58.4387H44.1874C44.7963 58.4387 45.2617 58.4909 45.5836 58.5953C45.9054 58.6997 46.1649 58.8939 46.3621 59.1781C46.5592 59.4594 46.6578 59.803 46.6578 60.2089C46.6578 60.5626 46.5824 60.8685 46.4317 61.1266C46.2809 61.3818 46.0736 61.5891 45.8097 61.7485C45.6415 61.85 45.411 61.9341 45.1182 62.0008C45.353 62.0791 45.5241 62.1574 45.6314 62.2357C45.7039 62.2879 45.8083 62.3995 45.9445 62.5706C46.0837 62.7416 46.1765 62.8736 46.2229 62.9664L47.1754 64.8148H44.9486L43.896 62.8663C43.7626 62.6141 43.6438 62.4502 43.5394 62.3749C43.3973 62.2763 43.2364 62.227 43.0566 62.227H42.8826V64.8148H40.9037ZM42.8826 61.0222H43.7133C43.8032 61.0222 43.9772 60.9932 44.2353 60.9352C44.3657 60.9091 44.4716 60.8424 44.5528 60.7352C44.6368 60.6279 44.6789 60.5046 44.6789 60.3655C44.6789 60.1596 44.6137 60.0016 44.4832 59.8914C44.3527 59.7812 44.1077 59.7261 43.7481 59.7261H42.8826V61.0222ZM50.4635 58.4387H52.4381V61.9051C52.4381 62.6329 52.3728 63.1867 52.2424 63.5666C52.1148 63.9464 51.8553 64.2683 51.4638 64.5321C51.0753 64.796 50.5766 64.9279 49.9677 64.9279C49.324 64.9279 48.8252 64.8409 48.4715 64.6669C48.1178 64.493 47.8437 64.2393 47.6495 63.9058C47.4581 63.5695 47.345 63.1548 47.3102 62.6619L49.1935 62.4053C49.1964 62.6866 49.221 62.8953 49.2674 63.0316C49.3138 63.1679 49.3921 63.2781 49.5023 63.3621C49.5777 63.4172 49.685 63.4448 49.8241 63.4448C50.0445 63.4448 50.2054 63.3636 50.3069 63.2012C50.4113 63.0359 50.4635 62.759 50.4635 62.3705V58.4387ZM57.4398 63.7623H55.1956L54.8867 64.8148H52.873L55.2695 58.4387H57.4181L59.8145 64.8148H57.753L57.4398 63.7623ZM57.0266 62.3835L56.322 60.0915L55.6218 62.3835H57.0266ZM59.049 58.4387H61.2368L62.5242 60.5916L63.8116 58.4387H65.9862L63.5071 62.1443V64.8148H61.5325V62.1443L59.049 58.4387ZM69.7049 63.7623H67.4606L67.1518 64.8148H65.1381L67.5346 58.4387H69.6831L72.0796 64.8148H70.018L69.7049 63.7623ZM69.2917 62.3835L68.5871 60.0915L67.8869 62.3835H69.2917ZM78.895 62.5053V61.1788H81.9395V63.8971C81.3567 64.2944 80.8406 64.5655 80.3912 64.7104C79.9446 64.8525 79.414 64.9236 78.7993 64.9236C78.0425 64.9236 77.4249 64.7945 76.9465 64.5365C76.471 64.2784 76.1013 63.8942 75.8374 63.3839C75.5765 62.8736 75.446 62.2879 75.446 61.6268C75.446 60.9309 75.5895 60.3263 75.8766 59.8131C76.1636 59.297 76.5841 58.9055 77.1379 58.6388C77.5699 58.4329 78.1513 58.33 78.8819 58.33C79.5865 58.33 80.1128 58.3938 80.4607 58.5214C80.8116 58.6489 81.1015 58.8476 81.3306 59.1172C81.5626 59.384 81.7366 59.7232 81.8525 60.135L79.9519 60.4742C79.8736 60.2335 79.7402 60.0494 79.5517 59.9218C79.3662 59.7943 79.1284 59.7305 78.8385 59.7305C78.4064 59.7305 78.0614 59.8812 77.8033 60.1828C77.5482 60.4814 77.4206 60.9555 77.4206 61.605C77.4206 62.2951 77.5496 62.788 77.8077 63.0838C78.0686 63.3795 78.4311 63.5274 78.895 63.5274C79.1154 63.5274 79.3256 63.4955 79.5256 63.4317C79.7257 63.3679 79.9548 63.2592 80.2128 63.1055V62.5053H78.895ZM83.1356 64.8148V58.4387H86.4193C87.0282 58.4387 87.4936 58.4909 87.8154 58.5953C88.1373 58.6997 88.3968 58.8939 88.594 59.1781C88.7911 59.4594 88.8897 59.803 88.8897 60.2089C88.8897 60.5626 88.8143 60.8685 88.6636 61.1266C88.5128 61.3818 88.3055 61.5891 88.0416 61.7485C87.8734 61.85 87.6429 61.9341 87.3501 62.0008C87.5849 62.0791 87.756 62.1574 87.8633 62.2357C87.9358 62.2879 88.0402 62.3995 88.1764 62.5706C88.3156 62.7416 88.4084 62.8736 88.4548 62.9664L89.4073 64.8148H87.1804L86.1279 62.8663C85.9945 62.6141 85.8757 62.4502 85.7713 62.3749C85.6292 62.2763 85.4683 62.227 85.2885 62.227H85.1145V64.8148H83.1356ZM85.1145 61.0222H85.9452C86.0351 61.0222 86.2091 60.9932 86.4672 60.9352C86.5976 60.9091 86.7035 60.8424 86.7847 60.7352C86.8687 60.6279 86.9108 60.5046 86.9108 60.3655C86.9108 60.1596 86.8455 60.0016 86.7151 59.8914C86.5846 59.7812 86.3396 59.7261 85.98 59.7261H85.1145V61.0222ZM89.6378 61.6311C89.6378 60.5902 89.9278 59.7798 90.5077 59.1998C91.0876 58.6199 91.8951 58.33 92.9303 58.33C93.9915 58.33 94.8092 58.6156 95.3833 59.1868C95.9574 59.7551 96.2444 60.5525 96.2444 61.5789C96.2444 62.3241 96.1183 62.9359 95.866 63.4143C95.6167 63.8899 95.2542 64.261 94.7787 64.5278C94.3061 64.7916 93.716 64.9236 93.0085 64.9236C92.2895 64.9236 91.6936 64.809 91.221 64.58C90.7512 64.3509 90.37 63.9884 90.0771 63.4926C89.7842 62.9968 89.6378 62.3763 89.6378 61.6311ZM91.6081 61.6398C91.6081 62.2835 91.7269 62.746 91.9647 63.0272C92.2054 63.3085 92.5316 63.4491 92.9433 63.4491C93.3666 63.4491 93.6943 63.3114 93.9262 63.0359C94.1582 62.7605 94.2742 62.2661 94.2742 61.5528C94.2742 60.9526 94.1524 60.5148 93.9088 60.2393C93.6682 59.961 93.3405 59.8218 92.9259 59.8218C92.5287 59.8218 92.2097 59.9624 91.9691 60.2437C91.7284 60.5249 91.6081 60.9903 91.6081 61.6398ZM101.455 58.4387H103.421V62.24C103.421 62.617 103.361 62.9736 103.242 63.31C103.127 63.6434 102.942 63.9363 102.69 64.1885C102.441 64.4379 102.178 64.6133 101.903 64.7148C101.52 64.8569 101.061 64.9279 100.524 64.9279C100.214 64.9279 99.8747 64.9062 99.5064 64.8627C99.1411 64.8192 98.8352 64.7336 98.5887 64.6061C98.3423 64.4756 98.1161 64.2915 97.9102 64.0537C97.7073 63.8159 97.5681 63.5709 97.4927 63.3187C97.3709 62.9127 97.31 62.5532 97.31 62.24V58.4387H99.2759V62.3314C99.2759 62.6793 99.3716 62.9519 99.563 63.149C99.7572 63.3433 100.025 63.4404 100.368 63.4404C100.707 63.4404 100.972 63.3447 101.164 63.1534C101.358 62.9591 101.455 62.6851 101.455 62.3314V58.4387ZM104.717 58.4387H107.992C108.705 58.4387 109.239 58.6083 109.592 58.9476C109.949 59.2868 110.127 59.7696 110.127 60.3959C110.127 61.0396 109.933 61.5427 109.545 61.9051C109.159 62.2676 108.569 62.4488 107.774 62.4488H106.696V64.8148H104.717V58.4387ZM106.696 61.157H107.179C107.558 61.157 107.825 61.0918 107.979 60.9613C108.133 60.8279 108.209 60.6583 108.209 60.4525C108.209 60.2524 108.143 60.0828 108.009 59.9436C107.876 59.8044 107.625 59.7348 107.257 59.7348H106.696V61.157Z" fill="#63109C"/>
</svg>
