<svg width="40" height="40" viewBox="0 0 40 40" fill="none" xmlns="http://www.w3.org/2000/svg">
<g clip-path="url(#clip0_2060_190)">
<path d="M19.9753 0C27.4728 0 33.5514 6.0778 33.5515 13.5752C33.5515 17.8704 31.5561 21.6992 28.4421 24.1865C27.1825 25.1927 26.6696 26.9894 26.6697 28.6016C26.6697 29.3204 26.0867 29.9033 25.3679 29.9033H14.7087C13.9899 29.9033 13.407 29.3204 13.407 28.6016C13.4071 27.0196 12.8883 25.2633 11.6404 24.291C8.45156 21.8068 6.40015 17.9305 6.40015 13.5752C6.40028 6.07788 12.478 0.000136067 19.9753 0ZM17.8083 19.043L18.8748 29.8984H21.0681L22.1345 19.043L19.9714 16.5381L17.8083 19.043Z" fill="#63109C"/>
<path d="M26.5974 35.2322C26.546 36.5005 25.5053 37.5134 24.2244 37.5134H15.7361C14.6956 37.5134 13.8129 36.8444 13.49 35.9138L26.5974 35.2322ZM26.6033 34.613L13.365 35.3005C13.3612 35.2456 13.3572 35.1904 13.3572 35.1345V33.2791L26.6033 32.5906V34.613ZM25.8748 30.7371C26.2766 30.7371 26.6032 31.0627 26.6033 31.4646V31.9714L13.3572 32.6589V31.4646C13.3573 31.0628 13.683 30.7372 14.0847 30.7371H25.8748Z" fill="#333335"/>
<path d="M24.3593 37.1236C24.3593 37.5015 24.2444 37.8757 24.0212 38.2249C23.798 38.574 23.4708 38.8912 23.0583 39.1585C22.6459 39.4257 22.1562 39.6377 21.6173 39.7823C21.0784 39.9269 20.5009 40.0013 19.9176 40.0013C19.3343 40.0013 18.7567 39.9269 18.2178 39.7823C17.6789 39.6377 17.1892 39.4257 16.7768 39.1585C16.3643 38.8912 16.0372 38.574 15.8139 38.2249C15.5907 37.8757 15.4758 37.5015 15.4758 37.1236L19.9176 37.1236H24.3593Z" fill="#333335"/>
</g>
<defs>
<clipPath id="clip0_2060_190">
<rect width="40" height="40" fill="white"/>
</clipPath>
</defs>
</svg>
