<svg width="119" height="119" viewBox="0 0 119 119" fill="none" xmlns="http://www.w3.org/2000/svg">
<path d="M112.704 38.3442C116.181 38.3445 119 41.1632 119 44.6401V90.2886C119 93.7658 116.181 96.5852 112.704 96.5854H107.037V104.326C107.037 106.72 104.47 108.238 102.372 107.084L83.2842 96.5854H47.8516C44.3744 96.5853 41.5557 93.7658 41.5557 90.2886V73.2896H71.1484C73.91 73.2895 76.3942 72.1039 78.1211 70.2144H83.3506V64.0308H80.5879C80.5891 63.9687 80.5928 63.9066 80.5928 63.8442V38.3442H112.704ZM89.71 70.2144H95.8936V64.0308H89.71V70.2144Z" fill="#63109C"/>
<path d="M71.1484 11.8999C74.6256 11.9 77.4441 14.7187 77.4443 18.1958V63.8442C77.4443 67.3215 74.6257 70.141 71.1484 70.1411H35.7168L16.6279 80.6401C14.5299 81.7936 11.963 80.2756 11.9629 77.8813V70.1411H6.2959C2.81873 70.1409 0 67.3215 0 63.8442V18.1958C0.000219812 14.7188 2.81887 11.9001 6.2959 11.8999H71.1484ZM35.7852 50.8091V56.9927H41.9688V50.8091H35.7852ZM38.7334 24.4028C35.3595 24.4029 32.6309 25.3192 30.5479 27.1528C28.4795 28.9865 27.3646 31.2165 27.2031 33.8423L32.8799 34.5474C33.276 32.7136 34.0023 31.3485 35.0586 30.4536C36.1149 29.5587 37.4283 29.1118 38.998 29.1118C40.6264 29.1118 41.9175 29.5441 42.8711 30.4097C43.8393 31.2605 44.3232 32.2878 44.3232 33.4907C44.3232 34.3563 44.0516 35.1488 43.5088 35.8677C43.1564 36.3226 42.0782 37.283 40.2744 38.7495C38.47 40.2165 37.2665 41.5378 36.665 42.7114C36.0638 43.8849 35.7627 45.381 35.7627 47.1997C35.7627 47.3757 35.7705 47.8675 35.7852 48.6743H41.3965C41.3672 46.9726 41.5064 45.7915 41.8145 45.1313C42.1372 44.4713 42.9515 43.5986 44.2568 42.5132C46.7801 40.4153 48.4237 38.7572 49.1865 37.5396C49.964 36.3219 50.3525 35.0308 50.3525 33.6665C50.3525 31.202 49.3039 29.0452 47.2061 27.1968C45.1082 25.3337 42.2836 24.4028 38.7334 24.4028Z" fill="#333335"/>
</svg>
