<svg width="40" height="40" viewBox="0 0 40 40" fill="none" xmlns="http://www.w3.org/2000/svg">
<g clip-path="url(#clip0_2060_13)">
<path d="M18.6768 3.29028C22.4477 3.29036 25.9569 4.3205 28.8926 6.09009C28.8905 6.14066 28.8894 6.19145 28.8916 6.24243L28.9639 7.89185L26.0801 10.7786C23.9851 9.42161 21.4329 8.6224 18.6768 8.62231C11.5605 8.62231 5.79111 13.933 5.79102 20.4846C5.79102 27.0363 11.5604 32.3479 18.6768 32.3479C25.7929 32.3477 31.5615 27.0362 31.5615 20.4846C31.5615 18.2262 30.8755 16.1155 29.6855 14.3186L32.5352 11.467L34.1816 11.5393C34.3248 11.5456 34.4663 11.5316 34.6045 11.5042C36.3469 14.118 37.3525 17.193 37.3525 20.4846C37.3525 29.9807 28.9912 37.6787 18.6768 37.679C8.36211 37.679 0 29.9808 0 20.4846C9.07972e-05 10.9885 8.36216 3.29028 18.6768 3.29028ZM18.6768 12.8157C20.2417 12.8157 21.7053 13.2144 22.9561 13.9055L20.0781 16.7874C19.6393 16.6463 19.1679 16.5686 18.6768 16.5686C16.3277 16.5686 14.4229 18.322 14.4229 20.4846C14.4229 22.6473 16.3277 24.4006 18.6768 24.4006C20.7816 24.4004 22.5277 22.9924 22.8682 21.1438L26.3984 17.6096C26.7889 18.4977 27.0058 19.4676 27.0059 20.4846C27.0059 24.7198 23.2769 28.1534 18.6768 28.1536C14.0764 28.1536 10.3467 24.7199 10.3467 20.4846C10.3468 16.2494 14.0765 12.8157 18.6768 12.8157Z" fill="#333335"/>
<path fill-rule="evenodd" clip-rule="evenodd" d="M34.8125 0.6755C35.3869 0.10055 36.3699 0.483077 36.4056 1.29547L36.5196 3.88486L39.1059 3.99897C39.9174 4.03478 40.2995 5.01897 39.7251 5.594L34.8601 10.465C34.6748 10.6504 34.4203 10.7494 34.1586 10.7379L32.1408 10.6488L20.4027 22.4009C19.7463 23.0581 18.6819 23.0581 18.0255 22.4009C17.3691 21.7437 17.3691 20.6782 18.0255 20.021L29.7637 8.26887L29.6748 6.24872C29.6632 5.98673 29.7621 5.73191 29.9473 5.54647L34.8125 0.6755ZM34.1864 10.5517C34.1904 10.5518 34.1944 10.5516 34.1984 10.5516C34.1879 10.5516 34.1774 10.5515 34.1669 10.5511L34.1864 10.5517ZM39.593 5.46188L39.6038 5.45102C39.6057 5.44899 39.6075 5.44679 39.6094 5.44476C39.604 5.45045 39.5986 5.45628 39.593 5.46188ZM36.2191 1.30365L36.2183 1.28857C36.2181 1.28513 36.2177 1.28165 36.2174 1.27822C36.2181 1.28664 36.2187 1.29511 36.2191 1.30365ZM34.9554 0.797144L34.9478 0.804555C34.9518 0.800682 34.9556 0.796817 34.9596 0.793055C34.9582 0.794399 34.9568 0.795785 34.9554 0.797144Z" fill="#63109C"/>
</g>
<defs>
<clipPath id="clip0_2060_13">
<rect width="40" height="40" fill="white"/>
</clipPath>
</defs>
</svg>
