<svg width="83" height="168" viewBox="0 0 83 168" fill="none" xmlns="http://www.w3.org/2000/svg">
<path d="M7.15256 153.695C11.1028 153.695 14.3051 156.897 14.3051 160.847C14.3051 164.798 11.1028 168 7.15256 168C3.20231 168 0 164.798 0 160.847C0 156.897 3.20231 153.695 7.15256 153.695Z" fill="#7A36AA"/>
<path d="M7.15256 122.956C11.1028 122.956 14.3051 126.158 14.3051 130.108C14.3051 134.059 11.1028 137.261 7.15256 137.261C3.20231 137.261 0 134.059 0 130.108C0 126.158 3.20231 122.956 7.15256 122.956Z" fill="#7A36AA"/>
<path d="M7.15256 92.2169C11.1028 92.2169 14.3051 95.4192 14.3051 99.3695C14.3051 103.32 11.1028 106.522 7.15256 106.522C3.20231 106.522 0 103.32 0 99.3695C0 95.4192 3.20231 92.2169 7.15256 92.2169Z" fill="#7A36AA"/>
<path d="M7.15256 61.4779C11.1028 61.4779 14.3051 64.6803 14.3051 68.6305C14.3051 72.5808 11.1028 75.7831 7.15256 75.7831C3.20231 75.7831 0 72.5808 0 68.6305C0 64.6803 3.20231 61.4779 7.15256 61.4779Z" fill="#7A36AA"/>
<path d="M7.15256 30.739C11.1028 30.739 14.3051 33.9413 14.3051 37.8915C14.3051 41.8418 11.1028 45.0441 7.15256 45.0441C3.20231 45.0441 0 41.8418 0 37.8915C0 33.9413 3.20231 30.739 7.15256 30.739Z" fill="#7A36AA"/>
<path d="M7.15256 -2.11712e-05C11.1028 -2.11712e-05 14.3051 3.20229 14.3051 7.15254C14.3051 11.1028 11.1028 14.3051 7.15256 14.3051C3.20231 14.3051 0 11.1028 0 7.15254C0 3.20229 3.20231 -2.11712e-05 7.15256 -2.11712e-05Z" fill="#7A36AA"/>
<path d="M41.3827 153.695C45.3329 153.695 48.5352 156.897 48.5352 160.847C48.5352 164.798 45.3329 168 41.3827 168C37.4324 168 34.2301 164.798 34.2301 160.847C34.2301 156.897 37.4324 153.695 41.3827 153.695Z" fill="#7A36AA"/>
<path d="M41.3827 122.956C45.3329 122.956 48.5352 126.158 48.5352 130.108C48.5352 134.059 45.3329 137.261 41.3827 137.261C37.4324 137.261 34.2301 134.059 34.2301 130.108C34.2301 126.158 37.4324 122.956 41.3827 122.956Z" fill="#7A36AA"/>
<path d="M41.3827 92.2169C45.3329 92.2169 48.5352 95.4192 48.5352 99.3695C48.5352 103.32 45.3329 106.522 41.3827 106.522C37.4324 106.522 34.2301 103.32 34.2301 99.3695C34.2301 95.4192 37.4324 92.2169 41.3827 92.2169Z" fill="#7A36AA"/>
<path d="M41.3827 61.4779C45.3329 61.4779 48.5352 64.6803 48.5352 68.6305C48.5352 72.5808 45.3329 75.7831 41.3827 75.7831C37.4324 75.7831 34.2301 72.5808 34.2301 68.6305C34.2301 64.6803 37.4324 61.4779 41.3827 61.4779Z" fill="#7A36AA"/>
<path d="M41.3827 30.739C45.3329 30.739 48.5352 33.9413 48.5352 37.8915C48.5352 41.8418 45.3329 45.0441 41.3827 45.0441C37.4324 45.0441 34.2301 41.8418 34.2301 37.8915C34.2301 33.9413 37.4324 30.739 41.3827 30.739Z" fill="#7A36AA"/>
<path d="M41.3827 -2.11712e-05C45.3329 -2.11712e-05 48.5352 3.20229 48.5352 7.15254C48.5352 11.1028 45.3329 14.3051 41.3827 14.3051C37.4324 14.3051 34.2301 11.1028 34.2301 7.15254C34.2301 3.20229 37.4324 -2.11712e-05 41.3827 -2.11712e-05Z" fill="#7A36AA"/>
<path d="M75.6128 153.695C79.563 153.695 82.7653 156.897 82.7653 160.847C82.7653 164.798 79.563 168 75.6128 168C71.6625 168 68.4602 164.798 68.4602 160.847C68.4602 156.897 71.6625 153.695 75.6128 153.695Z" fill="#7A36AA"/>
<path d="M75.6128 122.956C79.563 122.956 82.7653 126.158 82.7653 130.108C82.7653 134.059 79.563 137.261 75.6128 137.261C71.6625 137.261 68.4602 134.059 68.4602 130.108C68.4602 126.158 71.6625 122.956 75.6128 122.956Z" fill="#7A36AA"/>
<path d="M75.6128 92.2169C79.563 92.2169 82.7653 95.4192 82.7653 99.3695C82.7653 103.32 79.563 106.522 75.6128 106.522C71.6625 106.522 68.4602 103.32 68.4602 99.3695C68.4602 95.4192 71.6625 92.2169 75.6128 92.2169Z" fill="#7A36AA"/>
<path d="M75.6128 61.4779C79.563 61.4779 82.7653 64.6803 82.7653 68.6305C82.7653 72.5808 79.563 75.7831 75.6128 75.7831C71.6625 75.7831 68.4602 72.5808 68.4602 68.6305C68.4602 64.6803 71.6625 61.4779 75.6128 61.4779Z" fill="#7A36AA"/>
<path d="M75.6128 30.739C79.563 30.739 82.7653 33.9413 82.7653 37.8915C82.7653 41.8418 79.563 45.0441 75.6128 45.0441C71.6625 45.0441 68.4602 41.8418 68.4602 37.8915C68.4602 33.9413 71.6625 30.739 75.6128 30.739Z" fill="#7A36AA"/>
<path d="M75.6128 -2.11712e-05C79.563 -2.11712e-05 82.7653 3.20229 82.7653 7.15254C82.7653 11.1028 79.563 14.3051 75.6128 14.3051C71.6625 14.3051 68.4602 11.1028 68.4602 7.15254C68.4602 3.20229 71.6625 -2.11712e-05 75.6128 -2.11712e-05Z" fill="#7A36AA"/>
</svg>
